<svg width="129" height="50" viewBox="0 0 129 50" fill="none" xmlns="http://www.w3.org/2000/svg">
<path d="M5.07738 2.51055C4.42044 4.16916 3.9272 5.88026 3.60369 7.62242C2.25261 14.9383 3.9199 22.5963 7.68951 29.1638C11.4578 35.729 17.3862 41.2575 24.6687 44.2698L24.6695 44.2701C32.1296 47.367 40.6962 47.6242 48.5677 45.6423L48.5689 45.642C51.5171 44.9047 54.3524 43.868 57.0284 42.5595C56.1734 41.8032 55.3824 40.9777 54.6698 40.0828L54.6696 40.0826C51.3899 35.9596 49.9507 30.7716 49.4828 25.8116C49.0356 21.1207 49.5731 16.1274 51.9768 11.8187C53.0309 9.89058 54.4982 8.19219 56.2834 6.82901C58.0693 5.46525 60.135 4.46613 62.3489 3.89244L62.3539 3.89117C66.5312 2.83892 71.1498 3.50748 74.4239 6.43845M5.07738 2.51055L60.6376 44.6915C62.4551 45.7715 64.4202 46.6101 66.4625 47.2185C66.4625 47.2186 66.4626 47.2186 66.4626 47.2186C69.0335 47.9844 71.7265 48.3855 74.4012 48.444C79.925 48.5649 85.3654 47.286 90.403 45.374L90.4079 45.372C92.7655 44.458 95.0712 43.434 97.3164 42.3042C97.3165 42.3042 97.3165 42.3041 97.3166 42.3041C99.7557 41.0767 102.123 39.7246 104.409 38.2531C110.807 34.1928 116.579 29.3421 121.574 23.8394C121.574 23.8394 121.574 23.8393 121.574 23.8393C123.187 22.0618 124.719 20.2162 126.165 18.3073C125.992 18.5356 125.743 18.541 125.584 18.4929C125.685 18.3609 125.786 18.2286 125.886 18.096C125.887 18.095 125.888 18.094 125.889 18.0929C125.9 18.0776 125.912 18.0623 125.923 18.0469C126.061 17.8639 125.776 17.6852 125.61 17.8107L125.325 17.5951C125.325 17.5954 125.324 17.5958 125.324 17.5961L125.61 17.8111C125.595 17.8228 125.58 17.8372 125.568 17.8544M5.07738 2.51055C5.18425 2.24176 5.16744 1.93121 4.99597 1.67235C4.84404 1.443 4.62091 1.32827 4.43723 1.28137C4.09546 1.1941 3.51698 1.28162 3.28769 1.85066L3.2109 2.04123L3.21429 2.06336C0.311074 9.57284 0.75655 17.8855 3.6916 25.2729C6.64968 32.7183 12.0869 39.3492 19.242 43.6545C26.5679 48.0628 35.4084 49.5634 43.9353 48.456L43.9378 48.4557C49.1261 47.7644 54.1106 46.2019 58.6627 43.8676M5.07738 2.51055C5.07748 2.51031 5.07758 2.51007 5.07767 2.50983L4.70777 2.36331L4.7581 2.23585L4.72747 2.03553L4.72473 2.01761L4.36083 2.07325C4.28385 1.98045 4.09472 1.96667 4.00842 2.08539C4.00825 2.08562 4.00809 2.08585 4.00792 2.08609C3.99834 2.09937 3.99005 2.11431 3.98334 2.13097L3.98608 2.14889M74.4239 6.43845C74.4243 6.43878 74.4247 6.4391 74.425 6.43943L74.1563 6.73951C75.865 8.30428 77.0548 10.364 77.6324 12.5909C78.0156 14.063 78.1856 15.5438 78.1751 17.0161M74.4239 6.43845C74.4239 6.43839 74.4238 6.43832 74.4237 6.43825L74.1557 6.73896L74.4239 6.43845ZM78.1751 17.0161C78.1285 23.5692 74.5063 29.9551 70.1841 34.6675L70.1811 34.6709C69.1316 35.8013 68.0194 36.8717 66.8506 37.8784C66.8505 37.8785 66.8503 37.8786 66.8502 37.8787C64.7846 39.6578 62.5425 41.2379 60.1584 42.5993C60.2808 42.6851 60.4046 42.7696 60.5297 42.8529M78.1751 17.0161L78.5408 17.0222C78.4045 25.3095 73.3434 32.8515 67.1249 38.1974L67.124 38.1982C65.0778 39.9515 62.8685 41.5079 60.5297 42.8529M78.1751 17.0161L58.6627 43.8676M60.5297 42.8529C60.4014 42.9267 60.2727 42.9998 60.1436 43.0723C60.4887 43.3044 60.8414 43.5272 61.2012 43.7405C61.2014 43.7406 61.2016 43.7408 61.2017 43.7409C62.9274 44.7642 64.8142 45.571 66.779 46.1566C69.3014 46.9071 71.8614 47.2719 74.4257 47.3248C79.6983 47.4334 84.9886 46.2227 90.0049 44.3326L89.8657 43.9735C89.8665 43.9732 89.8672 43.9729 89.868 43.9726M60.5297 42.8529C60.8136 43.042 61.1045 43.2248 61.4022 43.401L61.4033 43.4017C65.2546 45.6904 69.8529 46.8441 74.434 46.9444C79.7082 47.0597 84.9507 45.8387 89.868 43.9726M89.868 43.9726C89.8689 43.9722 89.8698 43.9719 89.8707 43.9716L90.0074 44.3316C92.3448 43.4508 94.6228 42.4225 96.8118 41.3114C99.2179 40.0878 101.555 38.7571 103.814 37.3248C103.815 37.3244 103.816 37.324 103.816 37.3236C110.117 33.3304 115.82 28.5487 120.763 23.1032C122.354 21.3489 123.862 19.5298 125.287 17.6458L124.965 17.4073C124.967 17.4054 124.968 17.4035 124.97 17.4016M89.868 43.9726C94.6937 42.1015 99.2959 39.7613 103.599 36.9904L103.603 36.9878C111.921 31.7093 119.158 25.0747 124.97 17.4016M124.97 17.4016L125.289 17.6431C125.3 17.6276 125.312 17.6121 125.324 17.5966C125.312 17.6118 125.301 17.628 125.291 17.6452L125.568 17.8544M124.97 17.4016C125.329 16.9236 125.9 16.9684 126.217 17.1408C126.385 17.2322 126.575 17.4009 126.663 17.6649C126.764 17.9631 126.695 18.2683 126.523 18.4977L126.522 18.4988C125.059 20.437 123.51 22.3078 121.873 24.1111L121.873 24.1113C115.032 31.6484 106.765 37.9326 97.4917 42.6485L97.4912 42.6487C88.2034 47.363 77.0333 50.7727 66.3509 47.5942L66.3506 47.5941C63.5985 46.7739 60.9617 45.5329 58.6627 43.8676M125.568 17.8544L125.29 17.6481C125.215 17.777 125.179 17.9576 125.242 18.1428C125.253 18.1752 125.265 18.2049 125.28 18.232C125.376 18.1064 125.472 17.9806 125.568 17.8544ZM58.6627 43.8676L3.68367 1.95598L3.68309 1.95742M3.98608 2.14889L3.95259 2.13567L3.66253 2.02113C3.66404 2.01524 3.66563 2.0094 3.66731 2.00363C3.67194 1.98772 3.67722 1.97229 3.68309 1.95742M3.98608 2.14889L3.6455 2.20097L3.98608 2.14889ZM3.68309 1.95742C3.67711 1.97253 3.67114 1.98765 3.66518 2.00276C3.66297 2.00836 3.66076 2.01396 3.65856 2.01957L3.68309 1.95742ZM58.8627 41.6064C62.685 39.4995 66.1398 36.8189 69.08 33.6522C74.2399 28.0258 78.0784 20.2585 76.1807 12.9682L76.1805 12.9676C75.2841 9.51187 72.7441 6.58241 69.0529 5.63233L69.0509 5.63181C65.2079 4.63123 60.9077 5.78638 57.7334 8.06209L57.7327 8.0626C54.1364 10.6344 52.2013 14.7871 51.5372 19.0201C50.8273 23.5622 51.3868 28.4031 52.8934 32.7788L58.8627 41.6064ZM58.8627 41.6064C56.0625 39.2619 54.0791 36.2164 52.8935 32.7791L58.8627 41.6064Z" fill="#E8A838" stroke="#E8A838" stroke-width="1.5"/>
<path d="M100.555 25.2219C100.366 25.2442 100.171 25.2113 99.996 25.122C99.7827 25.0129 99.6016 24.8185 99.5227 24.5608C99.4429 24.2999 99.484 24.0232 99.6248 23.7996C99.6941 23.6895 99.783 23.5994 99.8814 23.5303C99.9804 23.4608 100.09 23.4117 100.204 23.3835L100.206 23.3828L100.206 23.3828C102.169 22.9021 104.123 22.3916 106.067 21.8515C112.964 19.9333 119.727 17.6465 126.322 15.0031C126.45 14.9454 126.588 14.9173 126.725 14.9177C126.875 14.9182 127.027 14.9533 127.166 15.0243C127.306 15.0955 127.431 15.2025 127.525 15.3416C127.618 15.4815 127.675 15.648 127.681 15.825L127.682 15.8388L127.681 15.8388C127.711 17.679 127.717 19.5216 127.701 21.3667C127.701 21.3668 127.701 21.3669 127.701 21.3671L127.288 21.3633C127.252 26.035 127.07 30.6351 126.742 35.3859L126.742 35.386C126.615 37.2126 126.466 39.0359 126.294 40.856L126.705 40.8924C126.704 40.8937 126.704 40.895 126.704 40.8962M100.555 25.2219L125.656 35.3109C125.529 37.1276 125.381 38.9427 125.211 40.756C125.226 40.5939 125.314 40.453 125.431 40.3655C125.485 40.3251 125.541 40.2989 125.594 40.283C125.579 40.4513 125.563 40.6195 125.547 40.7876C125.547 40.7883 125.547 40.789 125.547 40.7897C125.546 40.8018 125.545 40.814 125.544 40.8261C125.523 41.0613 125.891 41.0741 125.95 40.8646L126.29 40.8968C126.291 40.8838 126.293 40.8707 126.294 40.8577L126.704 40.8962M100.555 25.2219H100.597L100.685 25.2003C107.744 23.4673 114.681 21.3547 121.46 18.8735C121.885 18.7183 122.295 18.5699 122.697 18.4245C123.742 18.0469 124.73 17.6894 125.782 17.2832C125.845 23.3494 125.666 29.1897 125.245 35.2825M100.555 25.2219L125.245 35.2825M126.704 40.8962C126.646 41.5308 126.084 41.7627 125.734 41.7627C125.544 41.7627 125.307 41.7072 125.106 41.534C124.881 41.3396 124.77 41.0538 124.796 40.7598L124.797 40.7555C124.969 38.9344 125.119 37.1101 125.245 35.2825M126.704 40.8962L125.245 35.2825M125.957 40.8261C125.973 40.6635 125.988 40.5009 126.003 40.3383C126.03 40.3547 126.058 40.3744 126.086 40.3981C126.228 40.5209 126.296 40.6957 126.293 40.8559L125.957 40.8261ZM125.957 40.8261C125.956 40.8388 125.954 40.8509 125.951 40.8623L126.291 40.8924C126.292 40.8809 126.292 40.8693 126.293 40.8576L125.957 40.8261ZM125.245 35.2825C125.245 35.2824 125.245 35.2824 125.245 35.2824L125.656 35.3109" fill="#E8A838" stroke="#E8A838" stroke-width="1.5"/>
</svg>
