<svg width="141" height="89" viewBox="0 0 141 89" fill="none" xmlns="http://www.w3.org/2000/svg">
<path d="M58.4892 82.9851C58.4892 68.94 64.4549 58.4521 69.7864 58.4521C75.1179 58.4521 81.0918 68.94 81.0918 82.9851C81.0908 84.7006 80.9988 86.4149 80.8164 88.1207H90.8286C90.9788 86.4506 91.0625 84.7136 91.0625 82.9851C91.0625 74.2591 89.1437 65.9841 85.6644 59.6796C81.6679 52.4316 76.0188 48.4402 69.7611 48.4402C63.5035 48.4402 57.8634 52.4316 53.8668 59.6796C50.3875 65.9841 48.4688 74.2591 48.4688 82.9851C48.4688 84.7136 48.5435 86.4339 48.6936 88.1207H58.7059C58.5388 86.4142 58.4666 84.6996 58.4892 82.9851Z" fill="#4F78AE"/>
<path d="M44.7039 50.309C51.6315 40.2807 60.659 34.7568 70.1163 34.7568C79.5735 34.7568 88.6091 40.2807 95.5367 50.309C102.464 60.3373 106.49 73.7605 106.845 88.1207H116.766C116.402 71.7959 111.805 56.4575 103.712 44.7523C94.8833 31.9621 82.9625 24.9258 70.1324 24.9258C57.3023 24.9258 45.3815 31.9621 36.5525 44.7523C28.4676 56.4575 23.872 71.7959 23.5 88.1207H33.4202C33.7508 73.7605 37.7267 60.4031 44.7039 50.309Z" fill="#4F78AE"/>
<path d="M70.5045 9.88566C102.323 9.88566 128.495 44.4114 131.036 88.179H141C139.796 65.668 132.797 44.6836 120.989 28.4688C107.621 10.1085 89.6856 0 70.4964 0C51.3071 0 33.3796 10.1085 20.0028 28.4688C8.19534 44.6836 1.204 65.668 0 88.179H9.9641C12.5133 44.4114 38.6941 9.88566 70.5045 9.88566Z" fill="#4F78AE"/>
</svg>
