<svg width="65" height="55" viewBox="0 0 65 55" fill="none" xmlns="http://www.w3.org/2000/svg">
<path d="M14.6456 30.6476C18.0464 30.6476 20.8987 31.6968 23.2025 33.7952C25.5063 35.8936 26.6582 38.6546 26.6582 42.0783C26.6582 46.0542 25.5612 49.2018 23.3671 51.5211C21.173 53.8404 18.2658 55 14.6456 55C9.92827 55 6.30802 53.2329 3.78481 49.6988C1.2616 46.0542 0 40.9739 0 34.4578C0 18.996 7.51477 7.51004 22.5443 0L27.6456 9.93977C22.7089 12.4799 19.0338 15.4066 16.6203 18.7199C14.3165 22.0331 13.1646 26.0643 13.1646 30.8133C13.4937 30.7028 13.9873 30.6476 14.6456 30.6476ZM52 30.6476C55.4008 30.6476 58.2532 31.6968 60.557 33.7952C62.8608 35.8936 64.0127 38.6546 64.0127 42.0783C64.0127 46.0542 62.9156 49.2018 60.7215 51.5211C58.5274 53.8404 55.6203 55 52 55C47.2827 55 43.6624 53.2329 41.1392 49.6988C38.616 46.0542 37.3544 40.9739 37.3544 34.4578C37.3544 18.996 44.8692 7.51004 59.8987 0L65 9.93977C60.0633 12.4799 56.3882 15.4066 53.9747 18.7199C51.6709 22.0331 50.519 26.0643 50.519 30.8133C50.8481 30.7028 51.3418 30.6476 52 30.6476Z" fill="#F8EEE2"/>
</svg>
