<svg width="70" height="79" viewBox="0 0 70 79" fill="none" xmlns="http://www.w3.org/2000/svg">
<path d="M70.0074 11.2715L64.5819 0L63.0348 0.786398C56.636 3.95925 50.7625 8.11778 45.624 13.1135C42.3873 12.3094 39.077 11.8464 35.7461 11.732C25.8751 11.562 17.3552 14.5659 10.4035 20.7294C3.6268 26.9497 0.224487 34.7002 0.0214667 44.4344C-0.181554 54.0127 2.95472 62.2592 9.34636 68.9328C15.738 75.6065 23.9498 79 33.7508 79C45.0709 79 55.299 74.976 64.1479 67.0342L65.45 65.8723L57.1121 56.6128L55.8591 57.6259C48.3613 63.6548 41.1575 66.5878 33.7508 66.5878C27.3522 66.5878 22.2277 64.5475 18.0972 60.3676C16.1198 58.3077 14.5832 55.8574 13.5834 53.1696C12.5837 50.4818 12.1423 47.6143 12.2867 44.7461C12.8258 31.7743 21.9196 23.7687 35.515 24.3426H37.1042C35.6096 27.4567 34.8045 30.8633 34.7449 34.3247V34.7711C34.9619 42.6916 42.3127 49.3794 50.7906 49.3794C54.0248 49.4499 57.1917 48.4389 59.8005 46.5031C61.9948 45.1065 63.796 43.1605 65.0297 40.8533C66.2635 38.5461 66.8881 35.9558 66.8431 33.3329C66.8696 30.0627 65.9098 26.8621 64.0919 24.1584V23.9813L63.7208 23.5066C62.1351 21.5718 60.2424 19.9175 58.1203 18.6112C61.3392 16.0922 64.7873 13.8884 68.4183 12.0296L70.0074 11.2715ZM53.0308 36.273C52.378 36.6616 51.6382 36.8752 50.8811 36.8938C50.1241 36.9124 49.3748 36.7353 48.7043 36.3792C47.2481 35.437 47.2482 34.8773 47.2482 34.5373V34.3318C47.2482 32.4969 48.0113 30.2794 49.4604 27.8565C51.036 28.6482 52.4755 29.6912 53.7238 30.9454C54.1264 31.6826 54.3653 32.4998 54.4239 33.34C54.4386 33.9072 54.3185 34.4696 54.0736 34.98C53.8287 35.4905 53.4663 35.9339 53.0167 36.273H53.0308Z" fill="#FBB04B"/>
</svg>
