<svg width="116" height="115" viewBox="0 0 116 115" fill="none" xmlns="http://www.w3.org/2000/svg">
<path d="M54.2755 53.362C54.9252 52.7826 55.5926 52.2118 56.2779 51.6579C60.8005 48.1143 66.0393 45.5036 71.6655 43.9898C73.1737 37.6794 73.6179 31.1789 72.9822 24.7342C72.1797 16.446 70.0797 8.32055 66.7524 0.630487C63.8387 0.213119 60.8971 0.00238831 57.9509 0C56.4202 0 54.9163 0.0766486 53.4211 0.178891C57.5593 8.18664 60.143 16.8474 61.0476 25.7395C62.0087 36.8414 59.6331 46.3925 54.2755 53.362Z" fill="#4F78AE"/>
<path d="M58.7632 66.8905C60.4173 65.2648 61.9483 63.5057 63.3421 61.6294C61.6389 63.2032 60.1035 64.9673 58.7632 66.8905Z" fill="#4F78AE"/>
<path d="M41.4019 74.9793C42.8473 68.9677 45.6467 63.3267 49.6053 58.4467L48.9238 59.0219C40.2984 65.7433 27.99 67.3456 14.1721 63.5412C9.24317 62.1551 4.48983 60.2537 0 57.8716C0.045045 62.3253 0.662775 66.7571 1.83795 71.068C4.79922 72.2902 7.83835 73.333 10.9376 74.1903C21.9177 77.2141 32.3107 77.4444 41.4019 74.9793Z" fill="#4F78AE"/>
<path d="M115.582 50.3616C111.326 48.3202 106.889 46.6474 102.322 45.3633C91.262 42.2977 80.7848 42.0311 71.6202 44.5302C70.1655 50.6273 67.3402 56.3472 63.342 61.2913C63.5768 61.0997 63.794 60.8998 64.0375 60.7082C72.7326 53.8939 85.1407 52.2694 99.0615 56.1264C104.875 57.7759 110.445 60.1302 115.635 63.1323C115.875 61.0688 115.997 58.9942 116 56.9178C115.996 54.7265 115.856 52.5372 115.582 50.3616Z" fill="#4F78AE"/>
<path d="M58.7631 66.8904C58.1364 67.4662 57.4927 68.0335 56.8231 68.5838C52.4647 72.1069 47.4137 74.7016 41.9885 76.2045C40.5337 82.4756 40.1052 88.9358 40.7184 95.3405C41.2578 101.224 42.4639 107.029 44.3149 112.648C48.5321 113.659 52.8523 114.193 57.192 114.24C54.5832 107.886 52.9266 101.192 52.2734 94.3669C51.3033 83.3085 53.5951 73.8167 58.7631 66.8904Z" fill="#4F78AE"/>
<path d="M54.1842 53.3618C52.5304 54.9874 50.9995 56.7464 49.6052 58.6229C51.3104 57.0519 52.846 55.2876 54.1842 53.3618Z" fill="#4F78AE"/>
<path d="M54.5967 53.8722C53.3458 55.5591 51.9103 57.1046 50.3162 58.4807C46.2905 63.6253 43.4436 69.5721 41.9736 75.9097C47.517 74.3722 52.6781 71.7177 57.1315 68.1135C57.8157 67.5591 58.4733 66.9787 59.1137 66.381C60.3641 64.6963 61.7966 63.151 63.3856 61.7725C67.4191 56.6314 70.2693 50.6835 71.7368 44.3435C66.1914 45.8827 61.028 48.5369 56.5704 52.1397C55.895 52.7028 55.2634 53.2832 54.5967 53.8722Z" fill="#4F78AE"/>
</svg>
