<svg width="184" height="48" viewBox="0 0 184 48" fill="none" xmlns="http://www.w3.org/2000/svg">
<g clip-path="url(#clip0)">
<path d="M29.145 17.7078L26.8845 13.0742L26.2412 13.3988C23.5772 14.7033 21.1321 16.4139 18.9933 18.4692C17.6405 18.1287 16.2558 17.9309 14.8618 17.8789C10.9993 17.7113 7.22052 19.0365 4.30869 21.5798C2.93078 22.801 1.83179 24.3044 1.08631 25.988C0.340842 27.6715 -0.0336556 29.4957 -0.0116966 31.3369C-0.082452 33.2081 0.231004 35.0741 0.909292 36.8195C1.58758 38.565 2.61633 40.1529 3.93206 41.4853C5.24779 42.8178 6.82258 43.8664 8.55927 44.5666C10.296 45.2667 12.1577 45.6035 14.0296 45.5562C18.7189 45.568 23.24 43.81 26.6897 40.6335L27.2268 40.1554L23.7563 36.3482L23.2369 36.7614C20.1147 39.2464 17.0987 40.4505 14.0296 40.4505C12.8295 40.4924 11.6336 40.2865 10.5166 39.8458C9.39961 39.405 8.38539 38.7388 7.5372 37.8887C6.7133 37.0415 6.07313 36.0333 5.65674 34.9273C5.24036 33.8212 5.05669 32.6411 5.11729 31.4608C5.34157 26.1484 9.12486 22.8312 14.7909 23.0673H15.4697C14.8414 24.3553 14.5048 25.7661 14.484 27.1991V27.3821C14.5726 30.6404 17.6358 33.3909 21.1653 33.3909C22.5106 33.4219 23.8284 33.0068 24.9132 32.2104C25.8306 31.6384 26.5844 30.8389 27.1015 29.8894C27.6186 28.94 27.8814 27.8729 27.8643 26.7919C27.8735 25.4476 27.4742 24.1323 26.7192 23.0201V22.9434L26.5599 22.7486C25.9051 21.9544 25.1233 21.2743 24.2462 20.7358C25.5858 19.6994 27.0205 18.7923 28.5312 18.0265L29.145 17.7078ZM22.0624 28.0019C21.7938 28.155 21.4914 28.2389 21.1823 28.2461C20.8732 28.2533 20.5672 28.1836 20.2918 28.0432C19.7015 27.6537 19.7015 27.4234 19.7015 27.2818V27.2168C19.7685 26.262 20.0861 25.3417 20.6223 24.5489C21.2752 24.8767 21.8727 25.3049 22.3929 25.8179C22.5605 26.1217 22.6611 26.4578 22.688 26.8037C22.6896 27.038 22.6346 27.2693 22.5277 27.4779C22.4208 27.6865 22.2653 27.8662 22.0742 28.0019H22.0624Z" fill="#31302E"/>
<path d="M57.6702 46.2469C56.7888 42.9794 56.4381 39.5914 56.6314 36.2125L56.6845 34.8491C56.7435 33.2435 56.7966 31.9744 56.7966 30.8706C56.7966 24.059 55.7283 19.7678 53.5445 17.7551C52.0218 16.3266 49.962 15.6006 47.4122 15.6006C44.2825 15.6588 41.2083 16.4386 38.4291 17.8791L37.7917 18.1918L40.0522 22.8254L40.6896 22.5185C42.7976 21.4335 45.1247 20.842 47.4948 20.789C48.4007 20.7168 49.3027 20.97 50.0387 21.5032C50.4695 21.8987 51.2191 23.1324 51.467 27.0045C48.8951 26.1257 46.2043 25.644 43.4873 25.576C40.666 25.6469 37.9786 26.7942 35.9759 28.7827C33.9732 30.7713 32.8068 33.4506 32.7158 36.2715C32.7158 39.0339 34.1383 41.46 36.9359 43.4727C39.1756 45.1735 41.9029 46.1089 44.7149 46.1407C46.7394 46.1407 49.2006 45.5032 52.0336 44.2519L52.73 47.9882L57.859 46.9611L57.6702 46.2469ZM43.505 30.6995C46.2954 30.8047 49.0433 31.4167 51.6146 32.5057C51.6146 32.9425 51.5732 33.4796 51.5378 34.1112C51.5378 34.5303 51.4847 34.9966 51.4611 35.5101C51.3903 36.9032 51.3785 38.001 51.3785 38.8097C48.6871 40.2971 46.4501 41.0468 44.7326 41.0468C43.058 40.9921 41.4373 40.4415 40.0758 39.4649C38.4645 38.2843 38.0278 37.3813 37.8271 36.1653C37.6264 34.9494 38.075 33.8043 39.2436 32.5529C39.7912 31.976 40.4488 31.5147 41.1777 31.1963C41.9066 30.878 42.692 30.7091 43.4873 30.6995H43.505Z" fill="#31302E"/>
<path d="M103.489 31.9684C102.639 21.6565 99.2866 16.4268 93.5379 16.4268C90.6459 16.4268 87.9781 17.7726 85.3929 20.5586C83.1737 17.8493 80.801 16.533 78.1628 16.533C73.9191 16.533 70.49 20.2812 67.7691 27.9723L66.8719 17.6191L61.7725 18.0736L63.9268 44.7593L68.861 44.9777L68.9672 44.3874C69.6528 40.4703 70.5473 36.5927 71.6468 32.7711C74.2851 24.0884 76.4453 21.9752 77.8028 21.7332C79.1603 21.4912 80.6004 22.5478 82.2176 24.8911C79.3786 29.5011 77.9385 33.869 77.9385 37.8769C77.9385 43.6437 80.7774 47.9939 84.543 47.9939C87.984 47.9939 91.4662 44.5173 91.4662 37.8769C91.4662 33.8395 90.4098 29.6663 88.2378 25.1272C90.4511 22.3884 92.4991 21.2433 94.3583 21.7214C95.8221 22.0637 97.7108 24.1887 98.3836 32.3461C98.6411 36.0416 98.6155 39.7514 98.3069 43.443L98.2479 44.1336L103.424 44.7239L103.489 43.992C103.822 39.991 103.822 35.9693 103.489 31.9684ZM85.4697 41.8257C85.1273 42.4514 84.8145 42.7642 84.5607 42.7701C84.5607 42.7701 84.3187 42.6757 83.8702 41.8493C83.2928 40.5917 83.0102 39.2189 83.0439 37.8355C83.0439 35.7696 83.6813 33.3555 84.9326 30.6462C85.767 32.9541 86.2214 35.3821 86.2783 37.8355C86.3326 39.2112 86.0553 40.5798 85.4697 41.8257Z" fill="#31302E"/>
<path d="M148.723 2.52637C146.999 2.52945 145.347 3.21351 144.125 4.42965C142.904 5.6458 142.212 7.29547 142.201 9.01923C142.201 10.7412 142.885 12.3927 144.103 13.6103C145.32 14.828 146.972 15.5121 148.694 15.5121C150.415 15.5121 152.067 14.828 153.284 13.6103C154.502 12.3927 155.186 10.7412 155.186 9.01923C155.186 7.30232 154.506 5.65525 153.295 4.43845C152.084 3.22164 150.44 2.53417 148.723 2.52637ZM148.723 7.71471C149.721 7.71471 150.057 8.05116 150.057 9.0487C150.057 10.0462 149.721 10.3768 148.723 10.3768C147.726 10.3768 147.389 10.0403 147.389 9.0487C147.389 8.05707 147.726 7.73834 148.723 7.73834V7.71471Z" fill="#31302E"/>
<path d="M137.951 24.1537H147.465L146.078 44.2226L151.184 44.5649L152.919 18.9653H137.951V24.1537Z" fill="#31302E"/>
<path d="M183.852 46.2764C183.173 43.0654 182.795 41.1411 182.713 40.1081C182.671 39.2149 182.685 38.3199 182.754 37.4284L182.855 34.8607C182.914 33.2552 182.967 31.9861 182.967 30.8823C182.967 24.0707 181.898 19.7796 179.715 17.7668C178.192 16.3383 176.132 15.6123 173.582 15.6123C170.45 15.6688 167.374 16.4485 164.593 17.8907L163.95 18.2036L166.21 22.8371L166.848 22.5302C168.956 21.446 171.283 20.8546 173.653 20.8007C174.559 20.7274 175.461 20.9808 176.197 21.5149C176.628 21.9104 177.377 23.1441 177.625 27.0162C175.053 26.1375 172.362 25.6558 169.645 25.5877C166.824 25.6586 164.137 26.8059 162.134 28.7945C160.131 30.783 158.965 33.4623 158.874 36.2832C158.874 39.0457 160.296 41.4717 163.094 43.4845C165.334 45.1845 168.061 46.1197 170.873 46.1524C172.898 46.1524 175.359 45.5149 178.192 44.2636L178.894 47.9999L183.988 46.9788L183.852 46.2764ZM169.687 30.6994C172.477 30.8046 175.225 31.4166 177.796 32.5056C177.796 32.9424 177.755 33.4795 177.72 34.1111C177.72 34.5302 177.667 34.9965 177.643 35.51C177.572 36.9031 177.56 38.0009 177.56 38.8096C174.869 40.297 172.632 41.0467 170.914 41.0467C169.24 40.992 167.619 40.4414 166.258 39.4648C164.753 38.3846 164.021 37.3457 164.021 36.2832C164.021 35.0142 164.611 33.7805 165.791 32.5174C166.269 31.9561 166.861 31.5034 167.528 31.1899C168.194 30.8763 168.921 30.7091 169.657 30.6994H169.687Z" fill="#31302E"/>
<path d="M132.61 25.7943C129.883 22.1878 125.976 20.3639 121 20.3639C118.822 20.4352 116.691 21.011 114.773 22.0462L114.997 0.00585938L109.857 0.767247V1.35751C109.804 4.04319 109.745 7.98023 109.668 12.5725C109.503 22.6423 109.278 36.4308 109.013 46.2173V46.9316L114.201 47.0437L114.277 43.6202C116.444 44.7471 118.822 45.4066 121.26 45.5562C124.789 45.7114 128.244 44.5049 130.91 42.1859C132.225 41.0293 133.272 39.5989 133.977 37.995C134.681 36.3911 135.026 34.6525 134.988 32.9011C135.014 30.3326 134.176 27.8298 132.61 25.7943ZM126.513 39.0221C124.979 40.0083 123.174 40.4855 121.354 40.3856C118.86 40.2162 116.452 39.4027 114.366 38.0246L114.667 27.5887C116.322 25.9794 118.538 25.0757 120.847 25.0683C122.333 25.0341 123.805 25.3572 125.14 26.0105C126.475 26.6637 127.634 27.628 128.519 28.8224C129.063 29.5636 129.454 30.4057 129.669 31.2995C129.883 32.1934 129.918 33.1211 129.771 34.0285C129.658 35.0584 129.305 36.0474 128.739 36.915C128.173 37.7827 127.41 38.5046 126.513 39.0221Z" fill="#31302E"/>
</g>
<defs>
<clipPath id="clip0">
<rect width="184" height="48" fill="white"/>
</clipPath>
</defs>
</svg>
