<svg width="563" height="587" viewBox="0 0 563 587" fill="none" xmlns="http://www.w3.org/2000/svg">
<path d="M490.94 289.455C463.233 271.68 428.945 254.006 390.707 237.546C401.678 195.042 409.286 155.165 412.789 120.892C420.026 50.0571 409.471 12.3603 379.612 2.25979C349.752 -7.84068 318.52 15.745 281.438 76.5023C263.492 105.869 245.422 142.237 228.455 182.708C188.072 172.608 150.088 165.877 117.312 163.195C50.7803 157.747 12.048 169.833 2.18743 199.115C-7.67311 228.396 15.8362 261.502 72.0521 297.538C99.7588 315.312 134.055 332.986 172.286 349.455C161.314 391.959 153.707 431.827 150.211 466.101C142.966 536.943 153.521 574.64 183.388 584.741C213.256 594.841 244.481 571.247 281.57 510.498C299.508 481.131 317.578 444.756 334.553 404.284C374.928 414.393 412.912 421.124 445.696 423.806C512.22 429.215 550.952 417.159 560.813 387.886C570.673 358.612 547.164 325.49 490.94 289.455Z" fill="#8A8D56"/>
</svg>
