<svg width="646" height="632" viewBox="0 0 646 632" fill="none" xmlns="http://www.w3.org/2000/svg">
<path d="M486.831 250.614C457.557 246.803 427.828 248.532 399.194 255.711C411.805 231.322 420.055 204.915 423.569 177.684C427.68 146.243 425.391 114.295 416.839 83.76C408.288 53.2254 393.651 24.7348 373.808 0L0 287.913C18.8523 313.406 42.6644 334.824 70.0052 350.882C97.346 366.939 127.651 377.304 159.1 381.354C188.376 385.165 218.107 383.437 246.744 376.258C234.133 400.655 225.886 427.07 222.377 454.308C218.273 485.754 220.57 517.706 229.131 548.242C237.691 578.778 252.339 607.268 272.192 632L646 344.055C627.139 318.556 603.315 297.134 575.962 281.076C548.609 265.019 518.291 254.657 486.831 250.614Z" fill="#E8A838"/>
</svg>
