<svg width="509" height="362" viewBox="0 0 509 362" fill="none" xmlns="http://www.w3.org/2000/svg">
<path d="M197.743 304.605C204.638 258.636 229.349 227.215 246.842 229.839C264.336 232.463 278.729 269.78 271.839 315.719C270.999 321.334 269.859 326.901 268.423 332.395L301.346 337.333C302.664 331.882 303.782 326.307 304.632 320.637C308.914 292.09 306.693 264.052 298.383 241.687C288.831 216.034 272.277 200.16 251.771 197.084C231.265 194.008 210.817 204.302 194.117 226.049C179.615 244.969 169.262 271.144 164.981 299.691C164.129 305.369 163.547 311.024 163.224 316.617L196.147 321.555C196.376 315.88 196.909 310.223 197.743 304.605Z" fill="#CD7FA7"/>
<path d="M167.015 188.661C194.957 158.741 227.569 144.849 258.879 149.545C290.188 154.241 317.295 177.058 335.224 213.89C353.263 250.934 359.775 297.32 353.835 345.213L386.613 350.129C393.534 295.648 385.975 242.371 365.049 199.401C342.205 152.496 306.249 123.156 263.815 116.791C221.38 110.427 178.4 127.927 142.792 166.066C110.186 201.022 87.3322 249.722 77.965 303.837L110.735 308.752C119.069 261.217 138.896 218.782 167.015 188.661Z" fill="#CD7FA7"/>
<path d="M271.177 67.5952C375.994 83.3162 445.077 210.63 431.7 356.892L464.539 361.817C471.764 286.646 459.141 213.654 428.301 154.119C393.369 86.6801 339.314 44.3202 276.091 34.8376C212.867 25.355 148.733 49.9882 95.5765 104.215C48.6275 152.083 15.1613 218.162 -1.30826e-05 292.143L32.8391 297.068C62.96 153.318 166.36 51.8742 271.177 67.5952Z" fill="#CD7FA7"/>
</svg>
